<svg version="1.1" id="Layer_1" xmlns="http://www.w3.org/2000/svg" xmlns:xlink="http://www.w3.org/1999/xlink" x="0px" y="0px"
	 width="100%" viewBox="0 0 153 131" enable-background="new 0 0 153 131" xml:space="preserve">
<path fill="#FCFAFA" opacity="1.000000" stroke="none" 
	d="
M86.000000,132.000000 
	C57.333336,132.000000 29.166674,132.000000 1.000008,132.000000 
	C1.000005,88.333344 1.000005,44.666683 1.000003,1.000019 
	C51.999985,1.000013 102.999969,1.000013 153.999969,1.000006 
	C153.999969,44.666645 153.999969,88.333290 153.999985,131.999969 
	C131.500000,132.000000 109.000000,132.000000 86.000000,132.000000 
M26.208466,33.210220 
	C26.208466,33.210220 26.183693,33.282211 25.509935,33.346245 
	C24.427715,34.939095 23.345497,36.531944 21.928045,38.542717 
	C21.685671,38.805061 21.443298,39.067406 20.441805,39.199589 
	C18.923758,40.262222 16.979992,41.017960 15.956788,42.437321 
	C9.338481,51.618050 6.960759,62.305779 6.348176,73.292458 
	C6.102407,77.700317 6.911450,82.660530 12.258492,85.643150 
	C12.663493,86.709152 13.068495,87.775154 13.223025,89.469566 
	C14.132362,90.660843 15.041700,91.852127 16.060097,93.808105 
	C17.537405,99.824356 19.867476,105.239838 26.553942,108.393753 
	C32.720657,111.301338 38.558414,115.352280 46.673660,113.952888 
	C48.223118,114.015968 50.182220,113.492714 51.253071,114.240852 
	C56.684429,118.035400 62.583302,119.006927 69.383026,118.584488 
	C70.267136,118.701347 71.151253,118.818199 72.619553,119.030067 
	C73.010368,119.084152 73.401192,119.138245 74.045807,119.859268 
	C78.067673,123.748344 81.288071,124.104271 87.881485,121.234764 
	C91.342934,120.204018 94.804375,119.173264 98.751129,118.008438 
	C99.834221,118.011108 100.917305,118.013771 102.115913,118.725227 
	C106.058907,121.775078 108.566940,116.812134 112.696815,116.871750 
	C117.347214,112.894661 124.397408,112.611427 128.728195,106.965416 
	C131.189880,105.257896 133.651581,103.550377 136.999390,101.228226 
	C136.999390,100.195526 136.999390,98.097458 137.730331,95.940338 
	C138.471588,94.954842 139.212830,93.969345 140.517944,92.560608 
	C143.839493,86.490730 145.749084,80.104065 145.322281,72.478867 
	C145.425430,69.995522 145.528580,67.512184 145.745651,64.282867 
	C145.332214,61.668343 145.202942,58.965668 144.426788,56.463669 
	C143.622940,53.872356 142.191803,51.475632 141.089813,48.232918 
	C139.442612,44.794956 137.795395,41.356991 135.976273,37.234665 
	C132.648178,34.465370 129.320068,31.696072 125.713341,28.299644 
	C122.944557,25.648912 120.590218,22.009302 117.290146,20.626209 
	C114.005264,19.249475 109.770821,20.138409 105.468971,20.023506 
	C105.468971,20.023506 105.002052,20.150505 104.447838,19.881910 
	C103.731064,19.520670 103.014297,19.159430 101.960831,18.137564 
	C95.981972,16.689737 90.003105,15.241912 83.419388,13.289832 
	C79.360840,13.162761 75.219490,12.463346 71.262138,13.035829 
	C64.445343,14.021965 57.592236,15.328082 51.048717,17.420443 
	C47.053658,18.697906 43.608704,21.695728 39.324287,24.262474 
	C36.533478,26.137325 33.742668,28.012177 30.260464,29.971344 
	C28.933722,31.042503 27.606981,32.113663 26.208466,33.210220 
z"/>
<path fill="#959E94" opacity="1.000000" stroke="none" 
	d="
M105.002052,20.150505 
	C105.002052,20.150505 105.468971,20.023506 105.870209,20.289921 
	C107.201591,21.318783 108.131729,22.081226 109.048157,23.222157 
	C109.493706,24.341043 109.952972,25.081446 110.412231,25.821846 
	C110.959381,25.146276 111.506531,24.470709 112.398178,23.855526 
	C114.342934,24.817392 115.943199,25.718878 117.228363,26.824774 
	C117.472527,28.440969 117.894135,29.930668 118.634987,31.239683 
	C119.218895,32.271400 120.196053,33.080555 120.996796,34.371239 
	C121.994774,36.171112 122.994492,37.588310 124.032440,39.351952 
	C125.715210,42.131184 127.359741,44.563972 129.132706,47.275249 
	C129.828705,48.393131 130.396255,49.232521 130.588028,50.059116 
	C128.260010,48.654278 126.307770,47.262238 124.225967,45.672173 
	C124.096405,45.474152 123.824921,45.086479 123.838425,44.763504 
	C123.257698,43.928883 122.663475,43.417229 121.838394,42.669746 
	C120.447151,41.043621 119.286774,39.653328 118.059952,37.980015 
	C114.992386,35.786484 111.991249,33.875973 108.836166,31.653547 
	C106.868568,30.303619 105.158424,28.777750 103.212143,28.364824 
	C101.266533,27.952036 99.084740,28.652525 96.616043,28.860100 
	C94.183632,28.381294 92.141663,27.907381 89.990448,27.123543 
	C87.724548,25.881264 85.456215,23.961927 83.431015,24.191120 
	C75.573647,25.080341 67.793610,26.652906 59.985046,27.598335 
	C57.911480,21.795336 56.259235,21.252058 51.237694,23.284933 
	C47.990841,24.599361 44.423447,25.122005 41.001648,25.686310 
	C41.019424,24.957191 41.035248,24.541229 41.430779,24.044426 
	C46.906540,22.466890 51.927860,20.597986 57.115295,19.556334 
	C66.022850,17.767664 75.034081,16.495344 84.279839,15.286799 
	C88.704842,16.707226 92.851807,17.847116 97.153793,19.300869 
	C101.871338,23.921057 103.485535,24.033472 105.002052,20.150505 
M71.821426,24.732328 
	C71.975769,24.621859 72.130104,24.511389 72.284439,24.400917 
	C72.069717,24.422636 71.855003,24.444355 71.821426,24.732328 
M113.415810,27.483147 
	C113.415810,27.483147 113.522552,27.420248 113.415810,27.483147 
z"/>
<path fill="#909A91" opacity="1.000000" stroke="none" 
	d="
M21.200924,39.329746 
	C21.443298,39.067406 21.685671,38.805061 22.421772,38.270683 
	C24.004896,36.426502 25.094296,34.854359 26.183693,33.282211 
	C26.183693,33.282211 26.208466,33.210220 26.565723,33.165230 
	C27.942385,32.736515 28.961786,32.352795 30.336971,31.980583 
	C31.957623,32.518814 33.222492,33.045532 34.270771,33.482056 
	C35.937382,32.590012 37.455765,31.777306 39.035881,31.312115 
	C40.068233,32.110481 41.038857,32.561333 41.875980,33.289890 
	C41.737602,34.413616 41.568855,35.300919 41.768978,36.095295 
	C42.023846,37.106991 42.577183,38.043491 42.867294,39.100178 
	C42.732731,39.187946 42.411442,39.184120 42.012249,39.125488 
	C41.080891,39.045387 40.548729,39.023914 39.632778,39.002552 
	C35.331650,39.123608 34.269226,41.718807 34.020164,45.017521 
	C34.011742,45.008820 34.023403,45.023708 33.787346,45.023937 
	C33.384018,45.365696 33.216747,45.707226 32.913258,46.332077 
	C32.578827,47.203552 32.380611,47.791698 32.079388,48.604523 
	C31.710970,49.245380 31.445560,49.661568 30.818533,50.026649 
	C28.934826,50.537437 26.927832,50.687836 26.013405,51.765392 
	C24.870659,53.112000 24.626715,55.221340 23.601954,57.002228 
	C21.196827,57.071945 19.117418,56.865192 17.201761,57.331360 
	C16.305826,57.549389 15.726336,59.067791 14.729240,59.881969 
	C13.922175,59.498222 13.389295,59.229328 12.871672,58.541412 
	C12.343599,53.132908 14.775112,49.400990 18.353611,45.966209 
	C20.922998,44.488831 23.832563,43.344578 21.263800,39.737068 
	C21.257029,39.599483 21.200924,39.329746 21.200924,39.329746 
z"/>
<path fill="#9BA29A" opacity="1.000000" stroke="none" 
	d="
M45.957535,113.976387 
	C38.558414,115.352280 32.720657,111.301338 26.282442,107.797836 
	C25.198416,105.500999 24.499798,103.732597 23.542818,102.117264 
	C22.487814,100.336479 21.195608,98.696205 20.003380,96.997360 
	C20.000034,97.000000 19.994972,97.006531 20.276358,96.977180 
	C20.362288,95.638733 20.166830,94.329643 20.319504,93.066925 
	C22.752176,94.393822 24.728651,95.915977 26.942980,96.906281 
	C32.103085,99.213989 34.483555,103.232620 34.677486,109.099213 
	C36.935829,108.468628 38.889469,107.923126 41.280979,107.255356 
	C40.181236,104.155296 39.178989,101.502083 38.302628,98.807922 
	C37.533768,96.444244 36.906082,94.034630 36.509468,91.813416 
	C40.874866,96.317078 44.946835,100.652626 48.902313,105.277870 
	C48.535969,106.888367 48.286125,108.209167 48.159798,108.876984 
	C45.949593,109.345352 44.227520,109.710281 41.591183,110.268944 
	C43.765499,112.115143 44.861515,113.045769 45.957535,113.976387 
z"/>
<path fill="#D9D8D5" opacity="1.000000" stroke="none" 
	d="
M46.315598,113.964638 
	C44.861515,113.045769 43.765499,112.115143 41.591183,110.268944 
	C44.227520,109.710281 45.949593,109.345352 48.159798,108.876984 
	C48.286125,108.209167 48.535969,106.888367 49.264526,105.304733 
	C58.318127,110.091095 67.380203,113.071640 77.533340,112.174904 
	C78.612320,112.079605 79.866898,113.972633 80.613525,114.999954 
	C77.117607,115.367531 74.048187,115.678391 70.654327,116.028618 
	C69.874832,116.727959 69.419785,117.387932 68.964729,118.047913 
	C62.583302,119.006927 56.684429,118.035400 51.253071,114.240852 
	C50.182220,113.492714 48.223118,114.015968 46.315598,113.964638 
z"/>
<path fill="#C5C8C3" opacity="1.000000" stroke="none" 
	d="
M141.035034,48.993797 
	C142.191803,51.475632 143.622940,53.872356 144.426788,56.463669 
	C145.202942,58.965668 145.332214,61.668343 145.362335,64.746338 
	C143.965927,68.165474 142.952820,71.121147 141.647888,74.024475 
	C140.887787,73.644257 140.419510,73.316383 139.987274,72.546402 
	C140.030243,69.737602 140.037201,67.370911 140.270645,64.832565 
	C140.034317,64.070396 139.571518,63.479870 139.096756,62.466644 
	C137.721130,57.696278 136.357468,53.348614 134.878204,48.696873 
	C133.880051,47.534218 132.997513,46.675636 132.066635,45.483337 
	C131.642166,44.097443 131.266022,43.045269 131.029236,41.727947 
	C130.149475,39.630135 129.130325,37.797466 127.963181,35.690426 
	C126.892334,34.600910 125.969490,33.785770 125.024231,32.660725 
	C124.957115,31.939924 124.912422,31.529028 125.132065,30.929222 
	C125.594925,30.135801 125.793449,29.531288 125.991974,28.926777 
	C129.320068,31.696072 132.648178,34.465370 135.700745,37.606819 
	C134.748322,38.455189 134.071442,38.931408 133.394547,39.407623 
	C135.941376,42.603012 138.488205,45.798405 141.035034,48.993797 
z"/>
<path fill="#B8BBB6" opacity="1.000000" stroke="none" 
	d="
M18.008125,46.007896 
	C14.775112,49.400990 12.343599,53.132908 12.651224,58.728729 
	C12.279078,59.889847 12.142636,60.444630 11.994927,61.395493 
	C11.373663,65.783562 10.301857,69.773941 10.287868,73.768021 
	C10.274751,77.513138 11.380849,81.262169 11.994440,85.009483 
	C6.911450,82.660530 6.102407,77.700317 6.348176,73.292458 
	C6.960759,62.305779 9.338481,51.618050 15.956788,42.437321 
	C16.979992,41.017960 18.923758,40.262222 20.821365,39.264668 
	C21.200924,39.329746 21.257029,39.599483 21.057707,40.037010 
	C19.908297,42.318993 18.958210,44.163445 18.008125,46.007896 
z"/>
<path fill="#C8CBC7" opacity="1.000000" stroke="none" 
	d="
M84.001793,15.006266 
	C75.034081,16.495344 66.022850,17.767664 57.115295,19.556334 
	C51.927860,20.597986 46.906540,22.466890 41.146439,23.995710 
	C40.293823,23.992180 40.105247,23.956524 39.916676,23.920868 
	C43.608704,21.695728 47.053658,18.697906 51.048717,17.420443 
	C57.592236,15.328082 64.445343,14.021965 71.262138,13.035829 
	C75.219490,12.463346 79.360840,13.162761 83.716980,13.845812 
	C84.010307,14.603284 84.006050,14.804774 84.001793,15.006266 
z"/>
<path fill="#959E94" opacity="1.000000" stroke="none" 
	d="
M102.000397,118.016441 
	C100.917305,118.013771 99.834221,118.011108 98.075882,118.023636 
	C94.094246,118.369995 90.787849,118.701157 86.373512,119.143280 
	C88.200905,116.650749 89.122993,115.393036 90.388931,114.085922 
	C91.421158,113.971603 92.109543,113.906685 93.181091,113.884750 
	C98.530571,115.760796 102.267693,113.435867 105.749420,110.301842 
	C107.414909,108.802673 109.037926,107.256340 110.868088,105.556892 
	C111.893990,107.703194 112.441696,108.849060 113.348999,109.998634 
	C114.188721,110.019737 114.668846,110.037125 114.996666,110.345779 
	C113.432091,112.007065 112.019806,113.377068 110.253204,114.776276 
	C108.938576,114.895424 107.978271,114.985359 106.834282,114.821350 
	C105.423714,115.348030 104.196846,116.128654 102.754517,117.044273 
	C102.359497,117.458321 102.179947,117.737381 102.000397,118.016441 
M110.590240,110.515816 
	C110.590240,110.515816 110.481758,110.579369 110.590240,110.515816 
z"/>
<path fill="#9BA29A" opacity="1.000000" stroke="none" 
	d="
M12.126466,85.326317 
	C11.380849,81.262169 10.274751,77.513138 10.287868,73.768021 
	C10.301857,69.773941 11.373663,65.783562 12.331583,61.448654 
	C13.785367,62.070381 14.891229,63.035034 15.994953,64.396858 
	C15.670753,66.851112 15.348691,68.908203 15.017849,71.343506 
	C15.349587,73.158386 15.690107,74.595039 16.021511,76.378433 
	C15.677122,77.812943 15.341849,78.900711 15.006645,80.343124 
	C15.350356,81.811043 15.693995,82.924324 16.035765,84.347321 
	C16.022264,85.068405 16.010635,85.479759 15.992609,86.248383 
	C15.148641,87.350822 14.311069,88.095985 13.473497,88.841156 
	C13.068495,87.775154 12.663493,86.709152 12.126466,85.326317 
z"/>
<path fill="#A6ACA5" opacity="1.000000" stroke="none" 
	d="
M90.045082,114.135315 
	C89.122993,115.393036 88.200905,116.650749 86.373512,119.143280 
	C90.787849,118.701157 94.094246,118.369995 97.833229,118.090675 
	C94.804375,119.173264 91.342934,120.204018 87.242676,120.918808 
	C82.333252,120.132683 78.062630,119.662506 73.792007,119.192329 
	C73.401192,119.138245 73.010368,119.084152 72.288155,118.670197 
	C71.630760,117.536644 71.304756,116.762947 70.978760,115.989258 
	C74.048187,115.678391 77.117607,115.367531 81.015060,115.007828 
	C83.182541,114.896111 84.521988,114.833237 86.219368,114.831146 
	C87.733223,114.639725 88.889153,114.387520 90.045082,114.135315 
z"/>
<path fill="#E0E1DE" opacity="1.000000" stroke="none" 
	d="
M125.852654,28.613211 
	C125.793449,29.531288 125.594925,30.135801 124.843605,30.758593 
	C122.041687,29.391371 119.792572,28.005867 117.543457,26.620365 
	C115.943199,25.718878 114.342934,24.817392 112.184753,23.609827 
	C110.771843,23.150389 109.916855,22.997030 109.061867,22.843672 
	C108.131729,22.081226 107.201591,21.318783 106.112091,20.295116 
	C109.770821,20.138409 114.005264,19.249475 117.290146,20.626209 
	C120.590218,22.009302 122.944557,25.648912 125.852654,28.613211 
z"/>
<path fill="#DDDFDA" opacity="1.000000" stroke="none" 
	d="
M110.607529,114.747078 
	C112.019806,113.377068 113.432091,112.007065 115.296936,110.195435 
	C119.175507,107.891983 122.601517,106.030159 126.066620,104.462860 
	C126.723167,105.490562 127.340607,106.223755 127.958046,106.956940 
	C124.397408,112.611427 117.347214,112.894661 112.305008,116.573578 
	C111.477974,115.765968 111.042755,115.256523 110.607529,114.747078 
z"/>
<path fill="#CCD0CC" opacity="1.000000" stroke="none" 
	d="
M141.939728,74.076820 
	C142.952820,71.121147 143.965927,68.165474 145.305389,65.119324 
	C145.528580,67.512184 145.425430,69.995522 144.784622,72.967026 
	C142.263153,79.787994 140.278625,86.120575 138.364120,92.474258 
	C138.361313,92.483574 139.401230,92.807098 139.954086,92.983856 
	C139.212830,93.969345 138.471588,94.954842 137.079315,95.941246 
	C136.238602,95.917404 136.048874,95.892647 135.893005,95.467422 
	C135.957291,93.715042 135.987732,92.363129 136.051270,90.644844 
	C136.134491,89.544662 136.184631,88.810852 136.573639,88.003342 
	C137.711624,86.774551 138.844208,85.723976 139.245346,84.444138 
	C140.311905,81.041161 141.063110,77.539337 141.939728,74.076820 
z"/>
<path fill="#E7E8E6" opacity="1.000000" stroke="none" 
	d="
M135.859161,95.867882 
	C136.048874,95.892647 136.238602,95.917404 136.713852,95.970772 
	C136.999390,98.097458 136.999390,100.195526 136.999390,101.228226 
	C133.651581,103.550377 131.189880,105.257896 128.343124,106.961182 
	C127.340607,106.223755 126.723167,105.490562 126.337448,104.258591 
	C128.040802,101.824142 129.512421,99.888489 131.325256,97.965576 
	C133.064041,97.274834 134.461594,96.571358 135.859161,95.867882 
z"/>
<path fill="#B8BBB6" opacity="1.000000" stroke="none" 
	d="
M20.006725,96.994728 
	C21.195608,98.696205 22.487814,100.336479 23.542818,102.117264 
	C24.499798,103.732597 25.198416,105.500999 26.019402,107.579391 
	C19.867476,105.239838 17.537405,99.824356 16.069572,93.363579 
	C16.079046,92.919052 16.205467,92.794022 16.550705,92.864807 
	C17.606710,92.940910 18.317476,92.946220 19.264137,92.967255 
	C19.500032,92.982971 19.971373,93.020546 19.971373,93.020546 
	C20.166830,94.329643 20.362288,95.638733 20.224644,96.836563 
	C19.805771,96.675301 19.719997,96.625305 19.634224,96.575302 
	C19.758390,96.715111 19.882559,96.854919 20.006725,96.994728 
z"/>
<path fill="#A5ABA3" opacity="1.000000" stroke="none" 
	d="
M39.620483,24.091671 
	C40.105247,23.956524 40.293823,23.992180 40.766739,24.076551 
	C41.035248,24.541229 41.019424,24.957191 40.861336,25.993965 
	C40.137428,28.064718 39.555790,29.514660 38.974148,30.964600 
	C37.455765,31.777306 35.937382,32.590012 34.270771,33.482056 
	C33.222492,33.045532 31.957623,32.518814 30.456196,31.718573 
	C30.463709,30.925709 30.707783,30.406368 30.951855,29.887028 
	C33.742668,28.012177 36.533478,26.137325 39.620483,24.091671 
z"/>
<path fill="#B8BBB6" opacity="1.000000" stroke="none" 
	d="
M140.236023,92.772232 
	C139.401230,92.807098 138.361313,92.483574 138.364120,92.474258 
	C140.278625,86.120575 142.263153,79.787994 144.566132,73.275177 
	C145.749084,80.104065 143.839493,86.490730 140.236023,92.772232 
z"/>
<path fill="#C5C8C3" opacity="1.000000" stroke="none" 
	d="
M73.918907,119.525803 
	C78.062630,119.662506 82.333252,120.132683 86.816483,120.948532 
	C81.288071,124.104271 78.067673,123.748344 73.918907,119.525803 
z"/>
<path fill="#ABB0A9" opacity="1.000000" stroke="none" 
	d="
M84.279839,15.286798 
	C84.006050,14.804774 84.010307,14.603284 84.019409,14.097939 
	C90.003105,15.241912 95.981972,16.689737 101.685669,18.533489 
	C99.939934,18.948612 98.469345,18.967810 96.998764,18.987007 
	C92.851807,17.847116 88.704842,16.707226 84.279839,15.286798 
z"/>
<path fill="#B8BBB6" opacity="1.000000" stroke="none" 
	d="
M141.062424,48.613358 
	C138.488205,45.798405 135.941376,42.603012 133.394547,39.407623 
	C134.071442,38.931408 134.748322,38.455189 135.786713,37.948997 
	C137.795395,41.356991 139.442612,44.794956 141.062424,48.613358 
z"/>
<path fill="#D9D8D5" opacity="1.000000" stroke="none" 
	d="
M110.253204,114.776276 
	C111.042755,115.256523 111.477974,115.765968 111.951447,116.616211 
	C108.566940,116.812134 106.058907,121.775078 102.058159,118.370834 
	C102.179947,117.737381 102.359497,117.458321 103.087265,117.049980 
	C104.762978,116.305565 105.890472,115.690430 107.017975,115.075294 
	C107.978271,114.985359 108.938576,114.895424 110.253204,114.776276 
z"/>
<path fill="#98A097" opacity="1.000000" stroke="none" 
	d="
M97.153793,19.300867 
	C98.469345,18.967810 99.939934,18.948612 101.854019,18.863800 
	C103.014297,19.159430 103.731064,19.520670 104.724945,20.016209 
	C103.485535,24.033472 101.871338,23.921057 97.153793,19.300867 
z"/>
<path fill="#B8BBB6" opacity="1.000000" stroke="none" 
	d="
M13.348261,89.155365 
	C14.311069,88.095985 15.148641,87.350822 16.256653,86.474136 
	C17.343346,88.217773 18.159595,90.092918 18.683838,91.940353 
	C17.721741,91.558189 17.051649,91.203728 16.094904,90.697632 
	C16.140072,91.554062 16.172770,92.174042 16.205467,92.794022 
	C16.205467,92.794022 16.079046,92.919052 16.015041,92.981232 
	C15.041700,91.852127 14.132362,90.660843 13.348261,89.155365 
z"/>
<path fill="#B8BBB6" opacity="1.000000" stroke="none" 
	d="
M25.846813,33.314228 
	C25.094296,34.854359 24.004896,36.426502 22.589388,38.061722 
	C23.345497,36.531944 24.427715,34.939095 25.846813,33.314228 
z"/>
<path fill="#B8BBB6" opacity="1.000000" stroke="none" 
	d="
M30.606159,29.929184 
	C30.707783,30.406368 30.463709,30.925709 30.100412,31.707062 
	C28.961786,32.352795 27.942385,32.736515 26.601612,33.152531 
	C27.606981,32.113663 28.933722,31.042503 30.606159,29.929184 
z"/>
<path fill="#C5C8C3" opacity="1.000000" stroke="none" 
	d="
M70.654327,116.028618 
	C71.304756,116.762947 71.630760,117.536644 71.996063,118.622696 
	C71.151253,118.818199 70.267136,118.701347 69.173874,118.316200 
	C69.419785,117.387932 69.874832,116.727959 70.654327,116.028618 
z"/>
<path fill="#FCF9FA" opacity="1.000000" stroke="none" 
	d="
M85.861450,114.770355 
	C84.521988,114.833237 83.182541,114.896111 81.441551,114.951118 
	C79.866898,113.972633 78.612320,112.079605 77.533340,112.174904 
	C67.380203,113.071640 58.318127,110.091095 49.381023,105.015045 
	C44.946835,100.652626 40.874866,96.317078 36.440460,91.522995 
	C35.627823,90.400047 35.177624,89.735634 34.746422,88.762070 
	C34.215309,87.905441 33.665199,87.357971 33.044292,86.543701 
	C32.628204,85.861397 32.282909,85.445885 31.900618,84.663734 
	C28.270060,76.724121 25.265821,69.046471 27.891157,60.445602 
	C28.949589,56.978085 30.081617,53.533031 31.180151,50.077751 
	C31.445560,49.661568 31.710970,49.245380 32.411789,48.495880 
	C34.174114,46.756653 35.501026,45.350735 37.060333,43.735104 
	C38.190468,42.663166 39.088215,41.800949 40.300285,40.908302 
	C41.213554,40.313290 41.812496,39.748703 42.411442,39.184120 
	C42.411442,39.184120 42.732731,39.187946 43.215534,39.067787 
	C45.822243,37.682884 47.946148,36.418144 50.418724,35.022552 
	C63.369343,29.722300 76.118065,25.326908 90.099693,27.433468 
	C92.141663,27.907381 94.183632,28.381294 96.859253,29.129662 
	C101.324089,30.775963 105.155281,32.147812 109.064102,33.822304 
	C111.167686,35.981331 113.179688,37.853245 115.223465,39.689800 
	C117.334068,41.586407 117.949677,40.349209 118.126389,38.263035 
	C119.286774,39.653328 120.447151,41.043621 121.844955,42.989876 
	C122.663231,44.059380 123.244072,44.572929 123.824921,45.086479 
	C123.824921,45.086479 124.096405,45.474152 124.004608,45.939209 
	C123.638817,47.410534 122.801208,48.829865 123.185249,49.353878 
	C125.197281,52.099285 127.518860,54.617828 129.798233,57.558434 
	C130.206116,59.260376 130.548615,60.619099 130.655212,62.263805 
	C131.455399,72.134010 129.110748,80.934006 124.053078,89.025764 
	C123.410782,90.053368 121.913635,90.546669 120.844666,90.951538 
	C120.367432,90.256378 119.858070,89.897186 119.348701,89.537987 
	C119.044350,90.023506 118.740005,90.509033 118.435661,90.994560 
	C119.057533,91.264366 119.679413,91.534172 120.300873,92.237831 
	C120.086571,94.374657 119.872673,96.077644 119.325851,97.848251 
	C112.295074,101.584885 105.597229,105.253891 98.489624,108.924179 
	C95.647850,109.367340 93.016220,109.376991 90.843590,110.380440 
	C88.917831,111.269875 87.502251,113.263939 85.861450,114.770355 
M79.832848,76.742203 
	C80.605156,76.433975 81.391830,76.157219 82.147430,75.812378 
	C86.821609,73.679138 89.721268,70.036377 89.432755,64.912720 
	C89.187775,60.562149 86.175934,57.474461 82.024986,56.402531 
	C76.874733,55.072544 71.543381,55.190830 67.641510,59.475769 
	C64.899216,62.487282 64.213539,66.343025 66.219391,70.182770 
	C68.912178,75.337517 73.317719,77.403862 79.832848,76.742203 
z"/>
<path fill="#8F988F" opacity="1.000000" stroke="none" 
	d="
M130.984055,97.952835 
	C129.512421,99.888489 128.040802,101.824142 126.298355,103.964066 
	C122.601517,106.030159 119.175507,107.891983 115.449234,109.904160 
	C114.668846,110.037125 114.188721,110.019737 113.490730,109.675095 
	C114.845612,107.358086 116.517067,105.437019 117.963226,103.359161 
	C119.394135,101.303215 120.597656,99.089012 122.060501,96.640274 
	C124.735970,92.123703 127.371613,87.977074 129.737991,83.682083 
	C132.828186,78.073364 137.482239,72.777420 134.008026,65.560066 
	C133.683167,64.885216 133.956894,63.922222 133.970947,62.676674 
	C134.274780,60.812389 134.689850,59.375820 134.818268,57.914066 
	C135.063644,55.121033 134.380981,52.920712 130.933533,52.615440 
	C130.947784,51.524742 130.955795,50.798328 130.963821,50.071911 
	C130.396255,49.232521 129.828705,48.393131 129.506393,47.275917 
	C130.499268,46.997387 131.246887,46.996677 132.051010,47.339325 
	C133.069611,48.122105 134.031693,48.561523 134.993790,49.000946 
	C136.357468,53.348614 137.721130,57.696278 139.080933,62.781258 
	C139.399414,64.013779 139.721771,64.508995 140.044159,65.004211 
	C140.037201,67.370911 140.030243,69.737602 139.675797,72.718857 
	C138.096954,78.011574 136.857666,82.687729 135.665375,87.375839 
	C135.621078,87.550026 136.034607,87.840660 136.234787,88.077034 
	C136.184631,88.810852 136.134491,89.544662 135.709457,90.691193 
	C133.884399,93.386879 132.434235,95.669861 130.984055,97.952835 
z"/>
<path fill="#8A948B" opacity="1.000000" stroke="none" 
	d="
M39.035881,31.312115 
	C39.555790,29.514660 40.137428,28.064718 40.859383,26.307121 
	C44.423447,25.122005 47.990841,24.599361 51.237694,23.284933 
	C56.259235,21.252058 57.911480,21.795336 59.614399,27.667116 
	C56.158535,29.069778 53.073586,30.030912 49.704269,31.125881 
	C46.949764,31.843874 44.479618,32.428032 42.009476,33.012188 
	C41.038857,32.561333 40.068233,32.110481 39.035881,31.312115 
z"/>
<path fill="#ABB0A9" opacity="1.000000" stroke="none" 
	d="
M49.988640,30.992048 
	C53.073586,30.030912 56.158535,29.069778 59.614132,28.039864 
	C67.793610,26.652906 75.573647,25.080341 83.431015,24.191120 
	C85.456215,23.961927 87.724548,25.881264 89.990448,27.123543 
	C76.118065,25.326908 63.369343,29.722300 50.397522,34.605076 
	C50.014648,33.209648 50.001644,32.100849 49.988640,30.992048 
z"/>
<path fill="#D9D8D5" opacity="1.000000" stroke="none" 
	d="
M118.059952,37.980015 
	C117.949677,40.349209 117.334068,41.586407 115.223465,39.689800 
	C113.179688,37.853245 111.167686,35.981331 109.075974,33.432907 
	C109.003517,32.482399 108.996819,32.223930 108.990112,31.965462 
	C111.991249,33.875973 114.992386,35.786484 118.059952,37.980015 
z"/>
<path fill="#BEC1BC" opacity="1.000000" stroke="none" 
	d="
M130.588028,50.059116 
	C130.955795,50.798328 130.947784,51.524742 130.613647,52.665836 
	C130.102646,54.458744 129.917755,55.836979 129.732864,57.215210 
	C127.518860,54.617828 125.197281,52.099285 123.185249,49.353878 
	C122.801208,48.829865 123.638817,47.410534 124.134171,46.137230 
	C126.307770,47.262238 128.260010,48.654278 130.588028,50.059116 
z"/>
<path fill="#8A948B" opacity="1.000000" stroke="none" 
	d="
M131.994507,46.995972 
	C131.246887,46.996677 130.499268,46.997387 129.377960,46.997429 
	C127.359741,44.563972 125.715210,42.131184 124.035614,39.348938 
	C124.000542,38.999481 124.005875,38.994125 124.378891,38.994415 
	C126.797897,39.994167 128.843887,40.993629 130.889877,41.993095 
	C131.266022,43.045269 131.642166,44.097443 132.025085,45.777821 
	C132.019409,46.602676 132.006958,46.799324 131.994507,46.995972 
z"/>
<path fill="#98A097" opacity="1.000000" stroke="none" 
	d="
M117.228363,26.824772 
	C119.792572,28.005867 122.041687,29.391371 124.579269,30.947502 
	C124.912422,31.529028 124.957115,31.939924 124.797943,32.775688 
	C124.395958,33.468174 124.197838,33.735794 123.624588,34.001328 
	C122.499153,33.995686 121.748848,33.992123 120.998543,33.988564 
	C120.196053,33.080555 119.218895,32.271400 118.634987,31.239683 
	C117.894135,29.930668 117.472527,28.440969 117.228363,26.824772 
z"/>
<path fill="#ABB0A9" opacity="1.000000" stroke="none" 
	d="
M108.836166,31.653545 
	C108.996819,32.223930 109.003517,32.482399 108.998352,33.130264 
	C105.155281,32.147812 101.324089,30.775963 97.249687,29.134552 
	C99.084740,28.652525 101.266533,27.952036 103.212143,28.364824 
	C105.158424,28.777750 106.868568,30.303619 108.836166,31.653545 
z"/>
<path fill="#8A948B" opacity="1.000000" stroke="none" 
	d="
M120.996796,34.371239 
	C121.748848,33.992123 122.499153,33.995686 123.624870,34.334808 
	C124.001892,35.115162 124.003502,35.559952 124.001091,36.378479 
	C124.000000,37.499523 124.002937,38.246822 124.005875,38.994125 
	C124.005875,38.994125 124.000542,38.999481 123.997375,39.002495 
	C122.994492,37.588310 121.994774,36.171112 120.996796,34.371239 
z"/>
<path fill="#98A097" opacity="1.000000" stroke="none" 
	d="
M109.048157,23.222157 
	C109.916855,22.997030 110.771843,23.150389 111.840256,23.549446 
	C111.506531,24.470709 110.959381,25.146276 110.412231,25.821846 
	C109.952972,25.081446 109.493706,24.341043 109.048157,23.222157 
z"/>
<path fill="#D9D8D5" opacity="1.000000" stroke="none" 
	d="
M123.838425,44.763504 
	C123.244072,44.572929 122.663231,44.059380 122.075821,43.225700 
	C122.663475,43.417229 123.257698,43.928883 123.838425,44.763504 
z"/>
<path fill="#ABB0A9" opacity="1.000000" stroke="none" 
	d="
M71.730850,24.599201 
	C71.855003,24.444355 72.069717,24.422636 72.284439,24.400919 
	C72.130104,24.511389 71.975769,24.621859 71.730850,24.599201 
z"/>
<path fill="#98A097" opacity="1.000000" stroke="none" 
	d="
M113.469177,27.451698 
	C113.522552,27.420248 113.415810,27.483147 113.469177,27.451698 
z"/>
<path fill="#8B9589" opacity="1.000000" stroke="none" 
	d="
M34.727425,89.071220 
	C35.177624,89.735634 35.627823,90.400047 36.147034,91.354889 
	C36.906082,94.034630 37.533768,96.444244 38.302628,98.807922 
	C39.178989,101.502083 40.181236,104.155296 41.280979,107.255356 
	C38.889469,107.923126 36.935829,108.468628 34.677486,109.099213 
	C34.483555,103.232620 32.103085,99.213989 26.942980,96.906281 
	C24.728651,95.915977 22.752176,94.393822 20.319504,93.066925 
	C19.971373,93.020546 19.500032,92.982971 19.253910,92.721497 
	C19.007790,92.460014 18.975845,91.968063 18.975845,91.968063 
	C18.159595,90.092918 17.343346,88.217773 16.263052,86.116875 
	C16.010635,85.479759 16.022264,85.068405 16.383514,84.265945 
	C18.963535,81.332832 18.276699,80.086830 15.006576,79.988472 
	C15.341849,78.900711 15.677122,77.812943 16.365704,76.302994 
	C19.185257,73.198959 18.000563,71.774109 15.026628,70.965286 
	C15.348691,68.908203 15.670753,66.851112 16.282162,64.254929 
	C19.824165,60.884327 15.312515,61.326561 15.003425,59.996826 
	C15.726336,59.067791 16.305826,57.549389 17.201761,57.331360 
	C19.117418,56.865192 21.196827,57.071945 23.596359,57.404167 
	C23.052046,61.421677 20.848661,65.270653 21.458418,68.605209 
	C22.662962,75.192467 27.037722,80.436195 31.937614,85.030380 
	C32.282909,85.445885 32.628204,85.861397 33.029610,86.865021 
	C33.632961,87.992500 34.180191,88.531860 34.727425,89.071220 
M25.545048,81.283821 
	C25.283243,81.008614 25.021437,80.733414 24.759630,80.458206 
	C24.646149,80.566887 24.427797,80.763763 24.434322,80.771515 
	C24.678253,81.061562 24.942938,81.334152 25.545048,81.283821 
z"/>
<path fill="#A5ABA3" opacity="1.000000" stroke="none" 
	d="
M31.900618,84.663734 
	C27.037722,80.436195 22.662962,75.192467 21.458418,68.605209 
	C20.848661,65.270653 23.052046,61.421677 23.989151,57.403336 
	C24.626715,55.221340 24.870659,53.112000 26.013405,51.765392 
	C26.927832,50.687836 28.934826,50.537437 30.818533,50.026649 
	C30.081617,53.533031 28.949589,56.978085 27.891157,60.445602 
	C25.265821,69.046471 28.270060,76.724121 31.900618,84.663734 
z"/>
<path fill="#9BA29A" opacity="1.000000" stroke="none" 
	d="
M49.704273,31.125881 
	C50.001644,32.100849 50.014648,33.209648 50.048855,34.735931 
	C47.946148,36.418144 45.822243,37.682884 43.350098,38.980019 
	C42.577183,38.043491 42.023846,37.106991 41.768978,36.095295 
	C41.568855,35.300919 41.737602,34.413616 41.875980,33.289890 
	C44.479618,32.428032 46.949764,31.843874 49.704273,31.125881 
z"/>
<path fill="#8A948B" opacity="1.000000" stroke="none" 
	d="
M39.985966,40.938732 
	C39.088215,41.800949 38.190468,42.663166 36.761074,43.769150 
	C35.495815,44.350681 34.762199,44.688450 34.028587,45.026222 
	C34.269226,41.718807 35.331650,39.123608 39.623543,39.325363 
	C39.994049,40.078289 39.990005,40.508511 39.985966,40.938732 
z"/>
<path fill="#A5ABA3" opacity="1.000000" stroke="none" 
	d="
M18.353609,45.966209 
	C18.958210,44.163445 19.908297,42.318993 21.064478,40.174599 
	C23.832563,43.344578 20.922998,44.488831 18.353609,45.966209 
z"/>
<path fill="#98A097" opacity="1.000000" stroke="none" 
	d="
M14.729240,59.881969 
	C15.312515,61.326561 19.824165,60.884327 16.284300,63.857758 
	C14.891229,63.035034 13.785367,62.070381 12.342850,61.052570 
	C12.142636,60.444630 12.279078,59.889847 12.635966,59.147751 
	C13.389295,59.229328 13.922175,59.498222 14.729240,59.881969 
z"/>
<path fill="#A5ABA3" opacity="1.000000" stroke="none" 
	d="
M34.020164,45.017521 
	C34.762199,44.688450 35.495815,44.350681 36.528687,43.978867 
	C35.501026,45.350735 34.174114,46.756653 32.514797,48.271210 
	C32.380611,47.791698 32.578827,47.203552 33.124176,46.211826 
	C33.737610,45.604641 33.921642,45.343128 34.023403,45.023708 
	C34.023403,45.023708 34.011742,45.008820 34.020164,45.017521 
z"/>
<path fill="#9BA29A" opacity="1.000000" stroke="none" 
	d="
M40.300285,40.908302 
	C39.990005,40.508511 39.994049,40.078289 40.007324,39.325256 
	C40.548729,39.023914 41.080891,39.045387 42.012249,39.125488 
	C41.812496,39.748703 41.213554,40.313290 40.300285,40.908302 
z"/>
<path fill="#8A948B" opacity="1.000000" stroke="none" 
	d="
M33.787346,45.023937 
	C33.921642,45.343128 33.737610,45.604641 33.260391,45.928505 
	C33.216747,45.707226 33.384018,45.365696 33.787346,45.023937 
z"/>
<path fill="#A5ABA3" opacity="1.000000" stroke="none" 
	d="
M136.573639,88.003342 
	C136.034607,87.840660 135.621078,87.550026 135.665375,87.375839 
	C136.857666,82.687729 138.096954,78.011574 139.639771,73.160957 
	C140.419510,73.316383 140.887787,73.644257 141.647888,74.024475 
	C141.063110,77.539337 140.311905,81.041161 139.245346,84.444138 
	C138.844208,85.723976 137.711624,86.774551 136.573639,88.003342 
z"/>
<path fill="#959E94" opacity="1.000000" stroke="none" 
	d="
M124.378891,38.994415 
	C124.002937,38.246822 124.000000,37.499523 124.409988,36.375492 
	C125.918999,35.987446 127.015091,35.976124 128.111191,35.964802 
	C129.130325,37.797466 130.149475,39.630135 131.029236,41.727947 
	C128.843887,40.993629 126.797897,39.994167 124.378891,38.994415 
z"/>
<path fill="#8F988F" opacity="1.000000" stroke="none" 
	d="
M127.963181,35.690426 
	C127.015091,35.976124 125.918999,35.987446 124.414001,36.001755 
	C124.003502,35.559952 124.001892,35.115162 124.000000,34.336891 
	C124.197838,33.735794 124.395958,33.468174 124.820374,33.085594 
	C125.969490,33.785770 126.892334,34.600910 127.963181,35.690426 
z"/>
<path fill="#959E94" opacity="1.000000" stroke="none" 
	d="
M132.051010,47.339325 
	C132.006958,46.799324 132.019409,46.602676 132.073425,46.111542 
	C132.997513,46.675636 133.880051,47.534218 134.878204,48.696873 
	C134.031693,48.561523 133.069611,48.122105 132.051010,47.339325 
z"/>
<path fill="#A5ABA3" opacity="1.000000" stroke="none" 
	d="
M140.270630,64.832565 
	C139.721771,64.508995 139.399414,64.013779 139.092865,63.203957 
	C139.571518,63.479870 140.034317,64.070396 140.270630,64.832565 
z"/>
<path fill="#A6ACA5" opacity="1.000000" stroke="none" 
	d="
M121.900917,96.944229 
	C120.597656,99.089012 119.394135,101.303215 117.963226,103.359161 
	C116.517067,105.437019 114.845612,107.358086 113.131134,109.671379 
	C112.441696,108.849060 111.893990,107.703194 110.868088,105.556892 
	C109.037926,107.256340 107.414909,108.802673 105.749420,110.301842 
	C102.267693,113.435867 98.530571,115.760796 93.247772,113.546249 
	C94.224945,112.298409 95.531845,111.450966 96.807129,110.558334 
	C97.531311,110.051430 98.203682,109.470497 98.899384,108.922905 
	C105.597229,105.253891 112.295074,101.584885 119.634491,97.837540 
	C120.817673,97.487549 121.359299,97.215897 121.900917,96.944229 
z"/>
<path fill="#D9D8D5" opacity="1.000000" stroke="none" 
	d="
M98.489624,108.924187 
	C98.203682,109.470497 97.531311,110.051430 96.807129,110.558334 
	C95.531845,111.450966 94.224945,112.298409 92.864609,113.503265 
	C92.109543,113.906685 91.421158,113.971603 90.388931,114.085922 
	C88.889153,114.387520 87.733223,114.639725 86.219376,114.831146 
	C87.502251,113.263939 88.917831,111.269875 90.843590,110.380440 
	C93.016220,109.376991 95.647850,109.367340 98.489624,108.924187 
z"/>
<path fill="#A6ACA5" opacity="1.000000" stroke="none" 
	d="
M106.834274,114.821350 
	C105.890472,115.690430 104.762978,116.305565 103.302734,116.914993 
	C104.196846,116.128654 105.423714,115.348030 106.834274,114.821350 
z"/>
<path fill="#A6ACA5" opacity="1.000000" stroke="none" 
	d="
M110.535995,110.547592 
	C110.481758,110.579369 110.590240,110.515816 110.535995,110.547592 
z"/>
<path fill="#98A097" opacity="1.000000" stroke="none" 
	d="
M15.017848,71.343506 
	C18.000563,71.774109 19.185257,73.198959 16.374817,75.956253 
	C15.690107,74.595039 15.349587,73.158386 15.017848,71.343506 
z"/>
<path fill="#98A097" opacity="1.000000" stroke="none" 
	d="
M15.006645,80.343124 
	C18.276699,80.086830 18.963535,81.332832 16.385384,83.956223 
	C15.693995,82.924324 15.350356,81.811043 15.006645,80.343124 
z"/>
<path fill="#A5ABA3" opacity="1.000000" stroke="none" 
	d="
M131.325256,97.965576 
	C132.434235,95.669861 133.884399,93.386879 135.676361,91.057556 
	C135.987732,92.363129 135.957291,93.715042 135.893005,95.467422 
	C134.461594,96.571358 133.064041,97.274834 131.325256,97.965576 
z"/>
<path fill="#9BA29A" opacity="1.000000" stroke="none" 
	d="
M18.683838,91.940353 
	C18.975845,91.968063 19.007790,92.460014 19.018017,92.705772 
	C18.317476,92.946220 17.606710,92.940910 16.550705,92.864807 
	C16.172770,92.174042 16.140072,91.554062 16.094904,90.697632 
	C17.051649,91.203728 17.721741,91.558189 18.683838,91.940353 
z"/>
<path fill="#9BA29A" opacity="1.000000" stroke="none" 
	d="
M20.003380,96.997360 
	C19.882559,96.854919 19.758390,96.715111 19.634224,96.575302 
	C19.719997,96.625305 19.805771,96.675301 19.943256,96.865921 
	C19.994972,97.006531 20.000034,97.000000 20.003380,96.997360 
z"/>
<path fill="#959E9C" opacity="1.000000" stroke="none" 
	d="
M79.431778,76.806160 
	C73.317719,77.403862 68.912178,75.337517 66.219391,70.182770 
	C64.213539,66.343025 64.899216,62.487282 67.641510,59.475769 
	C71.543381,55.190830 76.874733,55.072544 82.024986,56.402531 
	C86.175934,57.474461 89.187775,60.562149 89.432755,64.912720 
	C89.721268,70.036377 86.821609,73.679138 82.147430,75.812378 
	C81.391830,76.157219 80.605156,76.433975 79.431778,76.806160 
z"/>
<path fill="#BEC1BC" opacity="1.000000" stroke="none" 
	d="
M122.060501,96.640274 
	C121.359299,97.215897 120.817673,97.487549 119.967407,97.769913 
	C119.872673,96.077644 120.086571,94.374657 120.356369,92.128296 
	C120.515800,91.445633 120.649216,91.346489 120.812531,91.287498 
	C121.913635,90.546669 123.410782,90.053368 124.053078,89.025764 
	C129.110748,80.934006 131.455399,72.134010 130.963348,62.382607 
	C132.322510,62.507950 133.137604,62.800480 133.952713,63.093010 
	C133.956894,63.922222 133.683167,64.885216 134.008026,65.560066 
	C137.482239,72.777420 132.828186,78.073364 129.737991,83.682083 
	C127.371613,87.977074 124.735970,92.123703 122.060501,96.640274 
z"/>
<path fill="#959E94" opacity="1.000000" stroke="none" 
	d="
M133.970947,62.676674 
	C133.137604,62.800480 132.322510,62.507950 131.199265,62.096619 
	C130.548615,60.619099 130.206116,59.260376 129.798233,57.558434 
	C129.917755,55.836979 130.102646,54.458744 130.607422,53.030121 
	C134.380981,52.920712 135.063644,55.121033 134.818268,57.914066 
	C134.689850,59.375820 134.274780,60.812389 133.970947,62.676674 
z"/>
<path fill="#E7E8E6" opacity="1.000000" stroke="none" 
	d="
M120.844666,90.951538 
	C120.649216,91.346489 120.515800,91.445633 120.356781,91.694458 
	C119.679413,91.534172 119.057533,91.264366 118.435661,90.994560 
	C118.740005,90.509033 119.044350,90.023506 119.348701,89.537987 
	C119.858070,89.897186 120.367432,90.256378 120.844666,90.951538 
z"/>
<path fill="#A5ABA3" opacity="1.000000" stroke="none" 
	d="
M34.746422,88.762070 
	C34.180191,88.531860 33.632961,87.992500 33.100410,87.131821 
	C33.665199,87.357971 34.215309,87.905441 34.746422,88.762070 
z"/>
<path fill="#A5ABA3" opacity="1.000000" stroke="none" 
	d="
M25.374931,81.446465 
	C24.942938,81.334152 24.678253,81.061562 24.434322,80.771515 
	C24.427797,80.763763 24.646149,80.566887 24.759630,80.458206 
	C25.021437,80.733414 25.283243,81.008614 25.374931,81.446465 
z"/>
</svg>